HIERARCHY
ROOT Hips
{
	OFFSET 52.277302 -18.285418 100.719002
	CHANNELS 6 Xposition Yposition Zposition Xrotation Yrotation Zrotation
	JOINT spine
	{
		OFFSET 0.000000 -0.507025 8.817047
		CHANNELS 3 Xrotation Yrotation Zrotation
		JOINT spine1
		{
			OFFSET 0.000000 -0.000002 10.776604
			CHANNELS 3 Xrotation Yrotation Zrotation
			JOINT spine2
			{
				OFFSET 0.000000 -0.000002 10.325897
				CHANNELS 3 Xrotation Yrotation Zrotation
				JOINT Neck
				{
					OFFSET 0.000000 -1.263954 26.511002
					CHANNELS 3 Xrotation Yrotation Zrotation
					JOINT Head
					{
						OFFSET 0.000000 -0.000002 8.009659
						CHANNELS 3 Xrotation Yrotation Zrotation
						End Site
						{
							OFFSET 0.000000 6.393856 19.387894
						}
					}
				}
				JOINT RightShoulder
				{
					OFFSET -4.347950 0.605419 11.151199
					CHANNELS 3 Xrotation Yrotation Zrotation
					JOINT RightArm
					{
						OFFSET 0.000000 -0.000002 14.625793
						CHANNELS 3 Xrotation Yrotation Zrotation
						JOINT RightArmRoll
						{
							OFFSET 0.000000 -0.000002 7.383408
							CHANNELS 3 Xrotation Yrotation Zrotation
							JOINT RightForeArm
							{
								OFFSET 0.000000 -0.000004 21.505203
								CHANNELS 3 Xrotation Yrotation Zrotation
								JOINT RightForeArmRoll
								{
									OFFSET 0.000000 -0.000002 8.285324
									CHANNELS 3 Xrotation Yrotation Zrotation
									JOINT RightHand
									{
										OFFSET 0.000000 -0.000002 16.626801
										CHANNELS 3 Xrotation Yrotation Zrotation
										End Site
										{
											OFFSET 0.000000 0.000000 0.100006
										}
									}
								}
							}
						}
					}
				}
				JOINT LeftShoulder
				{
					OFFSET 4.347950 0.605419 11.151199
					CHANNELS 3 Xrotation Yrotation Zrotation
					JOINT LeftArm
					{
						OFFSET 0.000000 -0.000002 14.625793
						CHANNELS 3 Xrotation Yrotation Zrotation
						JOINT LeftArmRoll
						{
							OFFSET 0.000000 -0.000002 7.383408
							CHANNELS 3 Xrotation Yrotation Zrotation
							JOINT LeftForeArm
							{
								OFFSET 0.000000 -0.000004 21.505203
								CHANNELS 3 Xrotation Yrotation Zrotation
								JOINT LeftForeArmRoll
								{
									OFFSET 0.000000 -0.000002 8.285324
									CHANNELS 3 Xrotation Yrotation Zrotation
									JOINT LeftHand
									{
										OFFSET 0.000000 -0.000002 16.626801
										CHANNELS 3 Xrotation Yrotation Zrotation
										End Site
										{
											OFFSET 0.000000 0.000000 0.100006
										}
									}
								}
							}
						}
					}
				}
			}
		}
	}
	JOINT RightUpLeg
	{
		OFFSET -7.815102 1.202171 -1.433090
		CHANNELS 3 Xrotation Yrotation Zrotation
		JOINT RightUpLegRoll
		{
			OFFSET 0.000000 -0.000004 19.495903
			CHANNELS 3 Xrotation Yrotation Zrotation
			JOINT RightLeg
			{
				OFFSET 0.000000 0.000004 -24.142700
				CHANNELS 3 Xrotation Yrotation Zrotation
				JOINT RightLegRoll
				{
					OFFSET 0.000000 -0.000004 24.221703
					CHANNELS 3 Xrotation Yrotation Zrotation
					JOINT RightFoot
					{
						OFFSET 0.000000 -0.000004 20.160500
						CHANNELS 3 Xrotation Yrotation Zrotation
						JOINT RightToeBase
						{
							OFFSET 0.000000 -0.000002 16.853195
							CHANNELS 3 Xrotation Yrotation Zrotation
							End Site
							{
								OFFSET 0.007145 0.940779 8.161865
							}
						}
					}
				}
			}
		}
	}
	JOINT LeftUpLeg
	{
		OFFSET 7.815102 1.202171 -1.433090
		CHANNELS 3 Xrotation Yrotation Zrotation
		JOINT LeftUpLegRoll
		{
			OFFSET 0.000000 -0.000004 19.496002
			CHANNELS 3 Xrotation Yrotation Zrotation
			JOINT LeftLeg
			{
				OFFSET 0.000000 -0.000004 24.142601
				CHANNELS 3 Xrotation Yrotation Zrotation
				JOINT LeftLegRoll
				{
					OFFSET 0.000000 -0.000004 24.445602
					CHANNELS 3 Xrotation Yrotation Zrotation
					JOINT LeftFoot
					{
						OFFSET 0.000000 -0.000004 19.936600
						CHANNELS 3 Xrotation Yrotation Zrotation
						JOINT LeftToeBase
						{
							OFFSET 0.000000 -0.000002 16.853195
							CHANNELS 3 Xrotation Yrotation Zrotation
							End Site
							{
								OFFSET -0.032013 0.940779 8.161865
							}
						}
					}
				}
			}
		}
	}
}
MOTION
Frames: 9
Frame Time: 0.041667
52.414600 -18.883217 100.696991 -4.825042 -0.550593 5.824854 -2.410382 0.037306 -0.110826 -0.818236 0.077846 -0.216429 0.826837 0.075250 -0.217349 22.359319 1.695319 -0.675378 -3.903089 4.882995 -0.932772 -11.612588 -64.940052 -14.011002 -43.538382 -127.488855 -97.235133 0.000000 -0.000001 -0.000002 102.764793 12.266035 -19.754225 0.000002 0.000004 -3.000361 -5.000218 -7.998864 0.000149 -9.360788 57.453263 10.970625 -47.459532 139.948172 85.706491 -0.000004 0.000026 -0.000001 89.071875 -3.443740 7.322101 0.000000 -0.000009 3.000009 -5.000226 7.998713 -0.000170 5.233621 -177.517382 0.407601 -179.999991 0.000006 -1.175006 174.976210 -1.077850 -0.375743 -0.000002 -0.000003 0.073409 69.416941 6.893594 2.109791 25.611425 -7.355624 0.231430 4.718167 176.852681 1.485651 -0.000005 -0.000004 -1.186180 -6.643367 2.278732 0.405866 -0.000001 0.000001 -0.103291 69.911091 -6.889516 -2.061548 25.861939 7.355618 -0.607718 
52.406898 -18.892120 100.697983 -4.819400 -0.547537 5.828346 -2.415271 0.037664 -0.111008 -0.827658 0.078831 -0.216285 0.817413 0.076234 -0.217212 22.443614 1.641666 -0.652851 -3.971393 4.910538 -0.911865 -11.638405 -64.933461 -14.040437 -43.671294 -127.466930 -97.119860 -0.000000 0.000000 0.000002 102.793883 12.226279 -19.716886 0.000003 0.000005 -3.000362 -5.000224 -7.998863 0.000147 -9.325212 57.462040 10.929203 -47.549147 139.845965 85.668454 -0.000002 0.000023 0.000002 89.068303 -3.438529 7.312029 -0.000001 -0.000008 3.000012 -5.000227 7.998715 -0.000166 5.229054 -177.520359 0.404346 -179.999991 0.000006 -1.175007 174.979638 -1.076849 -0.375590 -0.000002 -0.000003 0.073385 69.412180 6.893593 2.109786 25.612335 -7.355622 0.233002 4.709062 176.848651 1.484272 -0.000005 -0.000005 -1.186210 -6.645201 2.279171 0.406077 -0.000001 0.000001 -0.103407 69.909288 -6.889532 -2.061562 25.861739 7.355623 -0.607808 
52.410702 -18.886122 100.698997 -4.813327 -0.544022 5.832140 -2.420232 0.037940 -0.111104 -0.837305 0.079483 -0.215905 0.807766 0.076889 -0.216841 22.520167 1.591258 -0.630148 -4.024610 4.932427 -0.890895 -11.659437 -64.930674 -14.064650 -43.809141 -127.441727 -97.005379 -0.000002 0.000001 0.000002 102.834256 12.190602 -19.688198 0.000005 0.000002 -3.000359 -5.000222 -7.998859 0.000149 -9.282224 57.471677 10.879094 -47.644152 139.744550 85.627636 -0.000003 0.000023 -0.000003 89.069321 -3.431860 7.302019 0.000001 -0.000009 3.000009 -5.000228 7.998712 -0.000168 5.223250 -177.525318 0.400447 -179.999991 0.000006 -1.175006 174.981742 -1.075859 -0.375463 -0.000002 -0.000003 0.073360 69.408054 6.893584 2.109741 25.613244 -7.355621 0.234514 4.698706 176.844608 1.482405 -0.000005 -0.000004 -1.186241 -6.648697 2.279820 0.406288 -0.000001 0.000001 -0.103523 69.908864 -6.889520 -2.061586 25.861640 7.355609 -0.607786 
52.405300 -18.896023 100.699989 -4.806233 -0.540030 5.836563 -2.425669 0.038201 -0.111141 -0.847995 0.079954 -0.215327 0.797076 0.077366 -0.216268 22.595241 1.542424 -0.607152 -4.067434 4.949475 -0.869677 -11.676905 -64.933850 -14.085180 -43.958165 -127.410472 -96.897790 -0.000002 0.000001 0.000001 102.882976 12.157464 -19.666684 0.000005 0.000000 -3.000361 -5.000223 -7.998859 0.000145 -9.228370 57.483412 10.816317 -47.743934 139.640581 85.579265 -0.000003 0.000023 0.000001 89.073685 -3.423819 7.291513 -0.000002 -0.000008 3.000009 -5.000230 7.998712 -0.000170 5.215698 -177.529252 0.396124 -179.999991 0.000006 -1.175006 174.982712 -1.074868 -0.375358 -0.000002 -0.000003 0.073333 69.404448 6.893564 2.109762 25.614256 -7.355622 0.236054 4.686399 176.839567 1.480124 -0.000005 -0.000005 -1.186279 -6.653585 2.280652 0.406501 -0.000000 0.000001 -0.103642 69.909288 -6.889531 -2.061562 25.861338 7.355619 -0.607683 
52.407799 -18.891422 100.695999 -4.798245 -0.535621 5.841498 -2.431511 0.038445 -0.111128 -0.859546 0.080265 -0.214578 0.785525 0.077684 -0.215527 22.668547 1.494933 -0.583899 -4.100749 4.962526 -0.848285 -11.691030 -64.942060 -14.102219 -44.115328 -127.375187 -96.793568 0.000001 -0.000001 -0.000002 102.939502 12.126687 -19.651265 0.000010 0.000000 -3.000358 -5.000221 -7.998860 0.000148 -9.165228 57.496683 10.742704 -47.847739 139.534672 85.523893 -0.000001 0.000023 -0.000003 89.081117 -3.414741 7.280406 0.000002 -0.000010 3.000012 -5.000229 7.998711 -0.000166 5.206596 -177.535208 0.391176 -179.999991 0.000006 -1.175006 174.982644 -1.073874 -0.376269 -0.000002 -0.000003 0.073305 69.401170 6.893558 2.109765 25.615165 -7.355621 0.237576 4.672405 176.833529 1.477448 -0.000005 -0.000004 -1.186310 -6.659713 2.281656 0.406715 -0.000002 0.000001 -0.103763 69.910449 -6.889499 -2.061684 25.861128 7.355613 -0.607539 
52.406101 -18.888523 100.696983 -4.789543 -0.530861 5.846860 -2.437671 0.038672 -0.111078 -0.871774 0.080437 -0.213694 0.773296 0.077866 -0.214648 22.739778 1.448554 -0.560422 -4.125467 4.972448 -0.826823 -11.702118 -64.954457 -14.116044 -44.280458 -127.335831 -96.692659 -0.000001 0.000000 -0.000003 103.003030 12.097833 -19.640769 0.000005 0.000002 -3.000352 -5.000221 -7.998864 0.000150 -9.094480 57.511388 10.660223 -47.955376 139.426714 85.462844 0.000001 0.000023 -0.000000 89.091417 -3.404661 7.269095 -0.000003 -0.000008 3.000010 -5.000227 7.998711 -0.000167 5.196142 -177.541137 0.385856 -179.999991 0.000006 -1.175006 174.981660 -1.071872 -0.376112 -0.000002 -0.000003 0.073274 69.398301 6.893498 2.109734 25.616170 -7.355623 0.239125 4.656978 176.827491 1.474514 -0.000005 -0.000004 -1.186340 -6.666895 2.282815 0.406930 -0.000001 0.000001 -0.103885 69.912157 -6.889550 -2.061587 25.860828 7.355614 -0.607331 
52.404999 -18.889320 100.697983 -4.780252 -0.525811 5.852509 -2.444041 0.038882 -0.110996 -0.884496 0.080492 -0.212705 0.760576 0.077932 -0.213666 22.808524 1.403065 -0.536762 -4.142447 4.980082 -0.805373 -11.710523 -64.970317 -14.127021 -44.452596 -127.293047 -96.594256 0.000001 0.000000 -0.000000 103.073517 12.070362 -19.636148 0.000004 0.000000 -3.000350 -5.000220 -7.998856 0.000148 -9.017725 57.526988 10.570728 -48.065499 139.318005 85.395786 -0.000003 0.000023 -0.000001 89.104332 -3.393704 7.257568 0.000001 -0.000008 3.000011 -5.000229 7.998714 -0.000169 5.184568 -177.547066 0.380238 -179.999991 0.000006 -1.175005 174.979857 -1.070876 -0.376059 -0.000002 -0.000003 0.073242 69.395644 6.893485 2.109797 25.617185 -7.355625 0.240654 4.640399 176.821426 1.471347 -0.000005 -0.000004 -1.186380 -6.674958 2.284108 0.407145 -0.000001 0.000001 -0.104009 69.914493 -6.889552 -2.061643 25.860532 7.355617 -0.607074 
52.404202 -18.886818 100.695984 -4.770515 -0.520535 5.858350 -2.450566 0.039073 -0.110893 -0.897529 0.080451 -0.211645 0.747542 0.077903 -0.212612 22.874594 1.358238 -0.512955 -4.152592 4.986281 -0.784009 -11.716481 -64.988704 -14.135364 -44.630601 -127.247544 -96.497206 0.000001 -0.000001 -0.000002 103.149961 12.044077 -19.635271 0.000007 0.000004 -3.000352 -5.000223 -7.998863 0.000149 -8.936580 57.543148 10.476130 -48.177924 139.208449 85.324028 -0.000003 0.000025 -0.000002 89.119543 -3.382284 7.245800 0.000001 -0.000008 3.000013 -5.000229 7.998712 -0.000168 5.172057 -177.553991 0.374297 -179.999991 0.000006 -1.175005 174.977302 -1.068884 -0.375931 -0.000003 -0.000003 0.073208 69.393315 6.893485 2.109741 25.618195 -7.355627 0.242174 4.622921 176.814377 1.467891 -0.000005 -0.000005 -1.186410 -6.683722 2.285537 0.407361 -0.000001 0.000001 -0.104134 69.917245 -6.889529 -2.061669 25.860126 7.355625 -0.606753 
52.402000 -18.886723 100.695000 -4.760493 -0.515095 5.864265 -2.457120 0.039244 -0.110781 -0.910689 0.080335 -0.210547 0.734385 0.077800 -0.211518 22.937674 1.313840 -0.489039 -4.156785 4.991891 -0.762817 -11.720302 -65.008880 -14.141384 -44.812540 -127.200676 -96.399261 -0.000002 -0.000001 -0.000005 103.231855 12.018864 -19.637074 0.000005 0.000000 -3.000347 -5.000220 -7.998864 0.000145 -8.852717 57.559438 10.378355 -48.291811 139.098592 85.248069 -0.000005 0.000022 -0.000000 89.136858 -3.370328 7.233900 0.000001 -0.000011 3.000009 -5.000226 7.998715 -0.000168 5.158835 -177.559920 0.368290 -179.999991 0.000007 -1.175005 174.974147 -1.067872 -0.375902 -0.000002 -0.000003 0.073172 69.391300 6.893466 2.109662 25.619206 -7.355620 0.243669 4.604817 176.807329 1.464287 -0.000005 -0.000004 -1.186450 -6.693036 2.287063 0.407577 -0.000001 0.000001 -0.104259 69.920421 -6.889521 -2.061670 25.859818 7.355613 -0.606402 
